<svg id="Ebene_1" data-name="Ebene 1" xmlns="http://www.w3.org/2000/svg" viewBox="0 0 873.63 919.27"><defs><style>.cls-1{fill:#003b3f;}.cls-2{fill:#fff;stroke:#000;stroke-miterlimit:10;}</style></defs><title>logo</title><path class="cls-1" d="M187.21,137.87c-166.43,163.8-71.94,436.28-59.74,469.82C182.4,758.72,334.1,953.27,514,944c268.65-13.86,567.41-480.68,401.81-735.78C784.5,6,373.09-45.07,187.21,137.87Z" transform="translate(-89.75 -25.04)"/><polygon class="cls-2" points="426.88 354.73 305.56 447.76 210.04 329.61 331.36 236.59 426.88 354.73"/><polygon class="cls-2" points="644.07 380.28 522.75 473.3 331.36 236.59 452.68 143.57 644.07 380.28"/><polygon class="cls-2" points="243.48 687.48 147.95 569.34 426.97 355.39 522.5 473.54 243.48 687.48"/><polygon class="cls-2" points="618.09 591.96 496.77 684.98 401.24 566.84 522.56 473.82 618.09 591.96"/></svg>